<svg xmlns="http://www.w3.org/2000/svg" width="80" height="80" viewBox="0 0 80 80"><title>folder</title><path d="M11,62H63.09V20.8H24.8a1,1,0,0,1-1-1V16H11Z" opacity="0.12"/><path d="M63.19,64H10.9A1.9,1.9,0,0,1,9,62.1V15.9A1.9,1.9,0,0,1,10.9,14h13a1.9,1.9,0,0,1,1.9,1.9v2.9H63.19a1.9,1.9,0,0,1,1.9,1.9V62.1A1.9,1.9,0,0,1,63.19,64ZM11,62H63.09V20.8H24.8a1,1,0,0,1-1-1V16H11ZM63.19,20.8h0Z" fill="#fff" opacity="0.8"/><polygon points="12.67 62 64.39 62 70.22 25.6 18.51 25.6 12.67 62" opacity="0.1"/><path d="M64.39,64H10.9V62a.38.38,0,0,0-.3.11.46.46,0,0,0,.06-.17l5.81-36.6a2.11,2.11,0,0,1,2-1.74h52a1.75,1.75,0,0,1,1.35.61,1.78,1.78,0,0,1,.39,1.45l-5.81,36.6A2.11,2.11,0,0,1,64.39,64ZM12.67,62H64.39l5.83-36.4H18.51Z" fill="#fff"/></svg>