<?xml version="1.0" encoding="UTF-8" standalone="no"?>
<!DOCTYPE svg PUBLIC "-//W3C//DTD SVG 1.1//EN"
"http://www.w3.org/Graphics/SVG/1.1/DTD/svg11.dtd">


<!-- Page 1 -->
<svg x="0" y="0" width="45" height="52" viewBox="0 0 45 52" version="1.1" xmlns="http://www.w3.org/2000/svg" xmlns:xlink="http://www.w3.org/1999/xlink"
style="display: block;margin-left: auto;margin-right: auto;">
<defs>
<clipPath id="c0_1"><path d="M-50.5,76.5l0,-104l132,0l0,104Z" /></clipPath>
<clipPath id="c1_1"><path d="M-596.5,828.5l0,-1173l1564,0l0,1173Z" /></clipPath>
<clipPath id="c2_1"><path d="M-55.5,76.5l0,-104l141,0l0,104Z" /></clipPath>

<style type="text/css"><![CDATA[

.g2_1{
}
.g1_1{
fill: #FFFFFF;
}

.s1_1{
font-size: 76.39px;
font-family: Courier-Bold_b;
fill: TRANSPARENT;
}

]]></style>

</defs>
<path d="M0,0
L0,52
L45,52
L45,0 Z " 
fill="#FFFFFF" stroke="none" />
<path d="M-597,828l1564,0l0,-1173l-1564,0l0,1173Z" class="g1_1" />
<path d="M-597,828l1564,0l0,-1173l-1564,0l0,1173Z" class="g2_1" />
<path d="M-597,828l1564,0l0,-1173l-1564,0l0,1173Z" class="g1_1" />
<g clip-path="url(#c0_1)">
<g fill="#A9A9A9" fill-opacity="0.8" >
<use xlink:href="#f0_2" transform="matrix(50,0,0,50,-1.2,50.7)" />
</g>
</g>
<g clip-path="url(#c1_1)">
<g fill="none" stroke-width="15.277777671813965" stroke="#000000" >
<use xlink:href="#f0_3" transform="matrix(50,0,0,50,0.3,49.2)" />
</g>
</g>
<text 
x="-1" 
y="50" 
dx="0" 
class="s1_1"
>1</text>

<g clip-path="url(#c2_1)">
<g fill="none" stroke-width="15.277777671813965" stroke="#000000" >
<use xlink:href="#f0_2" transform="matrix(50,0,0,50,-1.2,50.7)" />
</g>
</g>
<text 
x="0" 
y="49" 
dx="0" 
class="s1_1"
>O</text>

<text 
x="-1" 
y="50" 
dx="0" 
class="s1_1"
>1</text>


<defs>
	<path d="M252.4,0c0,0,-51.5,0,-73.1,18.7c0,0,-21.7,18.7,-21.7,60.6c0,0,0,42.7,22,61.4c0,0,22.1,18.7,72.8,18.7l138.7,0l0.2,629.3L307.6,767.1c0,0,-19.4,-4.5,-32.1,-6.8c0,0,-12.7,-2.2,-18.7,-2.2c0,0,-30.6,0,-47.4,19.4c0,0,-16.8,19.4,-16.8,55.2c0,0,0,26.1,18.7,44c0,0,18.6,17.9,57.5,27.6L454,955.1c0,0,23.2,5.9,38.1,8.9c0,0,14.9,3,24.6,3c0,0,29.9,0,42.6,-16.4c0,0,12.7,-16.4,12.7,-55.2l0,-736l120.9,0c0,0,49.9,0,72.3,-18.7c0,0,22.4,-18.7,22.4,-61.4c0,0,0,-41.9,-21.6,-60.6C766,18.7,744.3,0,692.9,0Z" 
	id="f0_2"
	transform="scale(0.001,-0.001)" />

	<path d="M457.7,147.7c0,0,96.5,0,151.8,78c0,0,55.4,78.1,55.4,217c0,0,0,138.2,-55,215.9c0,0,-55,77.7,-152.2,77.7c0,0,-96.5,0,-151.4,-77.7c0,0,-55,-77.7,-55,-215.9c0,0,0,-138.2,55.3,-216.6c0,0,55.4,-78.4,151.1,-78.4ZM458,-23.4c0,0,-182.9,0,-302.4,131.6c0,0,-119.4,131.8,-119.4,334.7c0,0,0,204.5,118.3,335.5c0,0,118.3,130.9,303.5,130.9c0,0,183.6,0,302.3,-131.3C760.3,778,879,646.7,879,442.9c0,0,0,-205.2,-117.9,-335.8c0,0,-118,-130.5,-303.1,-130.5Z" 
	id="f0_3"
	transform="scale(0.001,-0.001)" />


</defs>

<!-- Any embedded fonts defined here -->
<style type="text/css" ><![CDATA[

@font-face {
	font-family: Courier-Bold_b;
	src: url("fonts/Courier-Bold_b.woff") format("woff");
}

]]></style>

</svg>
