<svg xmlns="http://www.w3.org/2000/svg" width="32" height="32" viewBox="0 0 32 32"><title>index</title><path d="M3,7V5A2,2,0,0,1,5,3H7A2,2,0,0,1,9,5V7A2,2,0,0,1,7,9H5A2,2,0,0,1,3,7ZM15,9h2a2,2,0,0,0,2-2V5a2,2,0,0,0-2-2H15a2,2,0,0,0-2,2V7A2,2,0,0,0,15,9ZM25,9h2a2,2,0,0,0,2-2V5a2,2,0,0,0-2-2H25a2,2,0,0,0-2,2V7A2,2,0,0,0,25,9ZM5,19H7a2,2,0,0,0,2-2V15a2,2,0,0,0-2-2H5a2,2,0,0,0-2,2v2A2,2,0,0,0,5,19Zm10,0h2a2,2,0,0,0,2-2V15a2,2,0,0,0-2-2H15a2,2,0,0,0-2,2v2A2,2,0,0,0,15,19Zm10,0h2a2,2,0,0,0,2-2V15a2,2,0,0,0-2-2H25a2,2,0,0,0-2,2v2A2,2,0,0,0,25,19ZM5,29H7a2,2,0,0,0,2-2V25a2,2,0,0,0-2-2H5a2,2,0,0,0-2,2v2A2,2,0,0,0,5,29Zm10,0h2a2,2,0,0,0,2-2V25a2,2,0,0,0-2-2H15a2,2,0,0,0-2,2v2A2,2,0,0,0,15,29Zm10,0h2a2,2,0,0,0,2-2V25a2,2,0,0,0-2-2H25a2,2,0,0,0-2,2v2A2,2,0,0,0,25,29Z" fill="#111"/></svg>